# Blender v2.79 (sub 0) OBJ File: ''
# www.blender.org
mtllib arm.mtl
o Cube_Cube.001
v 0.000000 0.000000 0.200000
v 0.000000 1.000000 0.200000
v 0.000000 0.000000 0.000000
v 0.000000 1.000000 0.000000
v 0.200000 0.000000 0.200000
v 0.200000 1.000000 0.200000
v 0.200000 0.000000 0.000000
v 0.200000 1.000000 0.000000
vt 0.499842 0.000158
vt 0.000158 0.000158
vt 0.000158 0.333281
vt 0.499842 0.333281
vt 0.000158 0.499842
vt 0.499842 0.499842
vt 0.000158 0.999842
vt 0.000158 0.500158
vt 0.333281 0.500158
vt 0.333281 0.999842
vt 0.833281 0.499842
vt 0.833281 0.000158
vt 0.999842 0.000158
vt 0.999842 0.499842
vt 0.832965 0.499842
vt 0.832965 0.333281
vt 0.333596 0.500158
vt 0.500158 0.500158
vt 0.500158 0.833281
vt 0.333596 0.833281
vn -1.0000 0.0000 0.0000
vn 0.0000 0.0000 -1.0000
vn 1.0000 0.0000 0.0000
vn 0.0000 0.0000 1.0000
vn 0.0000 -1.0000 0.0000
vn 0.0000 1.0000 0.0000
usemtl Material.001
s off
f 1/1/1 2/2/1 4/3/1 3/4/1
f 3/4/2 4/3/2 8/5/2 7/6/2
f 7/7/3 8/8/3 6/9/3 5/10/3
f 5/11/4 6/12/4 2/13/4 1/14/4
f 3/4/5 7/6/5 5/15/5 1/16/5
f 8/17/6 4/18/6 2/19/6 6/20/6
